<?xml version="1.0" encoding="utf-8"?>
<!-- Generator: Adobe Illustrator 24.0.0, SVG Export Plug-In . SVG Version: 6.00 Build 0)  -->
<svg version="1.0" id="Capa_1" xmlns="http://www.w3.org/2000/svg" xmlns:xlink="http://www.w3.org/1999/xlink" x="0px" y="0px"
	 width="772px" height="587px" viewBox="0 0 772 587" enable-background="new 0 0 772 587" xml:space="preserve">
<g>
	<g>
		<path fill="#262626" d="M576.5,127.6c13.5-9,22.4-24.4,22.4-41.8c0-2.6-2.1-4.8-4.8-4.8c-2.6,0-4.8,2.1-4.8,4.8
			c0,22.5-18.3,40.7-40.7,40.7c-17.4,0-31.6-14.2-31.6-31.6c0-13.4,10.9-24.4,24.4-24.4c10.2,0,18.5,8.3,18.5,18.5
			c0,7.6-6.2,13.9-13.9,13.9c-2.6,0-4.8,2.1-4.8,4.8c0,2.6,2.1,4.8,4.8,4.8c12.9,0,23.4-10.5,23.4-23.4c0-15.5-12.6-28.1-28.1-28.1
			c-12.4,0-23.2,6.7-29.1,16.6c-5.9-9.9-16.7-16.6-29.1-16.6c-15.5,0-28.1,12.6-28.1,28.1c0,12.9,10.5,23.4,23.4,23.4
			c2.6,0,4.8-2.1,4.8-4.8c0-2.6-2.1-4.8-4.8-4.8c-7.6,0-13.9-6.2-13.9-13.9c0-10.2,8.3-18.5,18.5-18.5c13.4,0,24.4,10.9,24.4,24.4
			c0,16.3-12.4,29.8-28.3,31.5c0,0-0.1,0-0.1,0c-1.1,0.1-2.1,0.2-3.2,0.2c-22.5,0-40.7-18.3-40.7-40.7c0-2.6-2.1-4.8-4.8-4.8
			s-4.8,2.1-4.8,4.8c0,20.1,11.9,37.5,29.1,45.5c-24,6.3-46.8,16.5-67.8,30.4c-11.6-7.7-23.9-14.4-37-19.9c2.3-3.6,3.6-7.9,3.5-12.5
			c-0.2-7-3.2-13.5-8.3-18.4c-5.1-4.8-11.9-7.4-18.9-7.1c-1.8,0.1-3.5,0.3-5.3,0.6c2.3-5.8,3.6-12,3.6-18.6c0-2.6-2.1-4.8-4.8-4.8
			c-2.6,0-4.8,2.1-4.8,4.8c0,22.5-18.3,40.7-40.7,40.7c-17.4,0-31.6-14.2-31.6-31.6c0-13.4,10.9-24.4,24.4-24.4
			c10.2,0,18.5,8.3,18.5,18.5c0,7.6-6.2,13.9-13.9,13.9c-2.6,0-4.8,2.1-4.8,4.8c0,2.6,2.1,4.8,4.8,4.8c12.9,0,23.4-10.5,23.4-23.4
			c0-15.5-12.6-28.1-28.1-28.1c-2.5,0-4.9,0.3-7.2,0.8c1.8-4.3,2.8-9.2,2.8-14.3c0-17.1-11.1-31.1-24.7-31.1
			c-13.6,0-24.8,13.9-24.8,31.1c0,5.2,1,10,2.8,14.3c-2.3-0.5-4.7-0.8-7.2-0.8c-15.5,0-28.1,12.6-28.1,28.1
			c0,12.9,10.5,23.4,23.4,23.4c2.6,0,4.8-2.1,4.8-4.8c0-2.6-2.1-4.8-4.8-4.8c-7.6,0-13.9-6.2-13.9-13.9c0-10.2,8.3-18.5,18.5-18.5
			c13.4,0,24.4,10.9,24.4,24.4c0,17.4-14.2,31.6-31.6,31.6c-22.5,0-40.7-18.3-40.7-40.7c0-2.6-2.1-4.8-4.8-4.8
			c-2.6,0-4.8,2.1-4.8,4.8c0,6.6,1.3,12.8,3.6,18.6c-1.7-0.3-3.5-0.6-5.3-0.6c-14.7-0.4-26.7,11-27.2,25.5
			c-0.3,8.6,4.5,16.1,11.6,20C61,187,11,263.2,11,350.9C11,476,112.8,577.8,237.9,577.8c4,0,8-0.1,12-0.3c0,0,0.1,0,0.1,0
			c3.9,0.2,7.8,0.3,11.7,0.3c46.2,0,89.3-13.9,125.2-37.8c37.2,24.7,80.5,37.8,125.3,37.8c4,0,8-0.1,12-0.3c0,0,0.1,0,0.1,0
			c3.9,0.2,7.8,0.3,11.7,0.3C661.2,577.8,763,476,763,350.9C763,240,683.9,146.8,576.5,127.6z M512.3,114.1c2,3.7,4.5,7.1,7.5,10.1
			c-2.5-0.1-5-0.2-7.5-0.2c-2.5,0-4.9,0.1-7.4,0.1C507.8,121.2,510.3,117.8,512.3,114.1z M311.1,120.3c4.1-4.3,9.6-6.8,15.5-7
			c4.5-0.1,8.8,1.5,12,4.5c3.3,3.1,5.2,7.2,5.3,11.7c0.2,5.9-3.7,10.9-9.1,12.4c-1.3,0.3-3,0.4-5.2,0.2c-3.9-0.9-6.9-4.3-7.1-8.5
			c-0.1-2.6-2.3-4.9-4.9-4.6c-2.6,0.1-4.7,2.3-4.6,4.9c0,1,0.2,1.9,0.4,2.9c-2.7-1-5.4-1.9-8.1-2.7
			C305.5,129,307.5,124.1,311.1,120.3z M295.9,131.2c0,0.1,0,0.2,0,0.3c-0.1,0-0.3-0.1-0.4-0.1C295.6,131.3,295.7,131.2,295.9,131.2
			z M222.7,47.5c0-11.7,7-21.6,15.2-21.6c8.3,0,15.2,9.9,15.2,21.6s-7,21.6-15.2,21.6C229.7,69.1,222.7,59.2,222.7,47.5z
			 M237.9,114.1c2,3.7,4.5,7.1,7.5,10.1c-2.5-0.1-5-0.2-7.5-0.2c-2.5,0-5,0.1-7.5,0.2C233.4,121.2,236,117.8,237.9,114.1z
			 M180.4,131.4c-0.1,0-0.3,0.1-0.4,0.1c0-0.1,0-0.2,0-0.3C180.2,131.2,180.3,131.3,180.4,131.4z M132,129.6
			c0.3-9.3,8-16.5,17.3-16.3c5.9,0.2,11.4,2.7,15.5,7c3.6,3.8,5.6,8.7,5.9,13.8c-2.7,0.9-5.4,1.8-8.1,2.7c0.2-0.9,0.3-1.9,0.4-2.9
			c0.1-2.6-2-4.8-4.6-4.9c-2.7-0.3-4.8,2-4.9,4.6c-0.2,5-4.3,8.7-9.3,8.8C137.2,142.2,131.8,136.5,132,129.6z M260.2,567.2
			c-0.3,0-0.5,0-0.8,0.1c-7.1,0.7-14.2,1.1-21.5,1.1c-119.9,0-217.4-97.5-217.4-217.4c0-119.9,97.5-217.4,217.4-217.4
			c101.1,0,186.4,69.4,210.5,163.1c0,0,0,0.1,0,0.1c0.8,3.1,1.5,6.3,2.2,9.4c0.1,0.6,0.3,1.3,0.4,1.9c0.6,3,1.1,6,1.6,9
			c0,0.3,0.1,0.6,0.2,0.9c0.5,3.3,0.9,6.5,1.3,9.8c0.1,0.8,0.2,1.7,0.2,2.5c0.2,2.5,0.4,5.1,0.6,7.6c0.1,1,0.1,1.9,0.2,2.9
			c0.2,3.3,0.3,6.7,0.3,10c0,3.7-0.1,7.3-0.3,11c-0.1,1.1-0.2,2.1-0.2,3.2c-0.2,2.6-0.3,5.2-0.6,7.7c-0.1,1.1-0.3,2.2-0.4,3.4
			c-0.3,2.5-0.6,4.9-0.9,7.4c-0.2,1-0.4,2.1-0.5,3.1c-0.4,2.5-0.8,5-1.3,7.5c-0.2,0.9-0.4,1.8-0.6,2.7c-0.6,2.6-1.2,5.2-1.8,7.8
			c-0.2,0.7-0.4,1.4-0.6,2.2c-0.7,2.8-1.5,5.5-2.3,8.2c-0.2,0.5-0.3,1-0.5,1.5c-0.9,2.9-1.9,5.8-2.9,8.7c-0.1,0.3-0.2,0.6-0.3,0.9
			c-1.1,3.1-2.3,6.2-3.6,9.2c0,0.1-0.1,0.1-0.1,0.2C407.9,507,340.4,559,260.2,567.2z M524,545.8c-36.4-2.2-71.1-14.6-100.7-35.6
			c40.4-41,65.4-97.2,65.4-159.2c0-60.4-24.6-117.4-65.5-159.2c29.7-21.1,64.4-33.4,100.8-35.7c102.2,6.1,183.5,91.1,183.5,194.9
			C707.5,454.6,626.2,539.7,524,545.8z M729.2,365.1c-0.2,2.6-0.3,5.2-0.6,7.7c-0.1,1.1-0.3,2.2-0.4,3.4c-0.3,2.5-0.6,4.9-0.9,7.4
			c-0.2,1-0.4,2.1-0.5,3.1c-0.4,2.5-0.8,5-1.3,7.5c-0.2,0.9-0.4,1.8-0.6,2.7c-0.6,2.6-1.1,5.2-1.8,7.8c-0.2,0.7-0.4,1.4-0.6,2.2
			c-0.7,2.8-1.5,5.5-2.3,8.2c-0.2,0.5-0.3,1-0.5,1.5c-0.9,2.9-1.9,5.8-2.9,8.7c-0.1,0.3-0.2,0.6-0.3,0.9c-1.1,3.1-2.3,6.2-3.6,9.2
			c0,0.1-0.1,0.1-0.1,0.2c-30.3,71.4-97.8,123.4-178,131.6c-0.2,0-0.5,0-0.7,0.1c-7.1,0.7-14.3,1.1-21.5,1.1
			c-41.7,0-82-11.8-116.9-34.1c3.7-2.7,7.3-5.4,10.8-8.3c0,0,0,0,0,0c12,7.3,24.6,13.3,37.7,17.9c0,0,0.1,0,0.1,0
			c4.3,1.5,8.6,2.9,13,4.1c0.4,0.1,0.9,0.2,1.3,0.3c4,1.1,8.1,2.1,12.1,3c1.1,0.2,2.1,0.4,3.2,0.6c3.5,0.7,7,1.3,10.5,1.8
			c2.1,0.3,4.2,0.4,6.2,0.7c2.6,0.3,5.1,0.6,7.7,0.8c4.7,0.3,9.5,0.5,14.2,0.5c3.8,0,7.6-0.1,11.4-0.3c0.3,0,0.5,0,0.8,0
			c0.1,0,0.1,0,0.2-0.1C631.8,548.8,717,459.7,717,350.9c0-108.7-85.2-197.9-192.4-204.4c-0.1,0-0.1,0-0.2-0.1c-0.3,0-0.5,0-0.8,0
			c-3.8-0.2-7.6-0.3-11.4-0.3c-37.6,0-74.3,10.3-106.2,29.8c-3.5-2.9-7-5.7-10.7-8.4c25.8-16.5,54.6-27.3,84.7-31.7c0,0,0,0,0,0
			c10.6-1.6,21.3-2.4,32.2-2.4c18.7,0,36.9,2.4,54.2,6.8c0.1,0,0.2,0.1,0.3,0.1c3.3,0.9,6.7,1.8,9.9,2.8c0.2,0,0.3,0.1,0.5,0.1
			c3.3,1,6.5,2.1,9.7,3.3c0.1,0,0.1,0.1,0.2,0.1c23.1,8.5,44.3,20.8,63,36.1c0.4,0.3,0.8,0.6,1.1,1c2.1,1.7,4.1,3.5,6.2,5.3
			c0.7,0.6,1.4,1.3,2.1,1.9c1.6,1.5,3.2,3,4.8,4.6c0.9,0.9,1.9,1.8,2.8,2.8c1.2,1.2,2.4,2.5,3.6,3.8c1.2,1.2,2.3,2.5,3.5,3.7
			c0.7,0.8,1.3,1.5,2,2.3c23.3,26.8,40.1,59.2,48.1,94.5c0.1,0.5,0.2,1,0.4,1.5c0.5,2.3,1,4.7,1.4,7c0.2,1.1,0.4,2.2,0.6,3.2
			c0.3,2,0.7,4.1,1,6.1c0.2,1.5,0.4,3,0.6,4.5c0.2,1.8,0.4,3.5,0.6,5.3c0.2,2,0.3,4,0.5,6c0.1,1.4,0.2,2.7,0.3,4.1
			c0.2,3.4,0.3,6.9,0.3,10.4c0,3.7-0.1,7.3-0.3,11C729.3,363,729.2,364,729.2,365.1z"/>
		<path fill="#262626" d="M390.9,215c-0.2-0.2-0.3-0.5-0.5-0.7l-3.4-3.5c-1.9-2-3.8-4-5.7-5.9l-2.8-2.9c-0.2-0.2-0.5-0.3-0.8-0.5
			c-5.2-4.8-10.6-9.4-16.2-13.7c0,0-0.1-0.1-0.1-0.1c-0.2-0.2-0.5-0.4-0.8-0.5c-31.1-23.4-69.1-38.1-110.4-40.6
			c-0.1,0-0.1,0-0.2-0.1c-0.3,0-0.5,0-0.8,0c-3.8-0.2-7.6-0.3-11.4-0.3C125,146.2,33.2,238,33.2,350.9S125,555.7,237.9,555.7
			c3.8,0,7.6-0.1,11.4-0.3c0.2,0,0.3,0,0.5,0c0,0,0,0,0,0c0,0,0,0,0,0c0.1,0,0.2,0,0.3,0c0.1,0,0.1,0,0.2-0.1
			c41.3-2.5,79.3-17.2,110.5-40.6c0.2-0.2,0.5-0.3,0.7-0.5c0,0,0.1-0.1,0.1-0.1c5.7-4.3,11.1-8.9,16.2-13.7c0.2-0.2,0.5-0.3,0.7-0.5
			l2.7-2.8c2.2-2.2,4.4-4.4,6.5-6.6l2.7-2.8c0.2-0.2,0.3-0.4,0.4-0.7c32.2-36.2,51.9-83.8,51.9-136
			C442.7,298.8,423.1,251.2,390.9,215z M249.6,545.8C146.9,539.5,66.5,454,66.5,350.9c0-103.1,80.4-188.6,183.1-194.9
			c37.5,2.2,72.2,15.1,101,35.6c-42.2,42.7-65.4,99-65.4,159.2c0,60.2,23.2,116.5,65.4,159.2C321.8,530.7,287.1,543.5,249.6,545.8z
			 M358.4,504.4c-41-41-63.5-95.4-63.5-153.5c0-58.1,22.6-112.5,63.5-153.5c3.3,2.6,6.6,5.3,9.8,8.2
			c-39.1,38.7-60.6,90.1-60.6,145.3c0,55.2,21.5,106.6,60.6,145.3C365,499.1,361.7,501.8,358.4,504.4z M386.9,476.9
			c-29.8-35.2-46.1-79.7-46.1-125.9c0-46.3,16.4-90.8,46.1-125.9c28.8,34,46.2,78,46.2,125.9C433.2,398.9,415.8,442.8,386.9,476.9z"
			/>
	</g>
</g>
</svg>
